<?xml version="1.0" encoding="UTF-8" standalone="no"?>
<!-- Created with Inkscape (http://www.inkscape.org/) -->
<svg
   xmlns:dc="http://purl.org/dc/elements/1.1/"
   xmlns:cc="http://creativecommons.org/ns#"
   xmlns:rdf="http://www.w3.org/1999/02/22-rdf-syntax-ns#"
   xmlns:svg="http://www.w3.org/2000/svg"
   xmlns="http://www.w3.org/2000/svg"
   xmlns:xlink="http://www.w3.org/1999/xlink"
   xmlns:sodipodi="http://sodipodi.sourceforge.net/DTD/sodipodi-0.dtd"
   xmlns:inkscape="http://www.inkscape.org/namespaces/inkscape"
   id="svg3369"
   sodipodi:version="0.32"
   inkscape:version="0.46"
   width="117"
   height="144"
   version="1.0"
   sodipodi:docname="ayah_temp.svg"
   inkscape:output_extension="org.inkscape.output.svg.inkscape">
  <metadata
     id="metadata3374">
    <rdf:RDF>
      <cc:Work
         rdf:about="">
        <dc:format>image/svg+xml</dc:format>
        <dc:type
           rdf:resource="http://purl.org/dc/dcmitype/StillImage" />
      </cc:Work>
    </rdf:RDF>
  </metadata>
  <defs
     id="defs3372">
    <inkscape:perspective
       sodipodi:type="inkscape:persp3d"
       inkscape:vp_x="0 : 526.18109 : 1"
       inkscape:vp_y="0 : 1000 : 0"
       inkscape:vp_z="744.09448 : 526.18109 : 1"
       inkscape:persp3d-origin="372.04724 : 350.78739 : 1"
       id="perspective3376" />
  </defs>
  <sodipodi:namedview
     inkscape:window-height="713"
     inkscape:window-width="1392"
     inkscape:pageshadow="2"
     inkscape:pageopacity="0.0"
     guidetolerance="10.0"
     gridtolerance="10.0"
     objecttolerance="10.0"
     borderopacity="1.0"
     bordercolor="#666666"
     pagecolor="#ffffff"
     id="base"
     showgrid="false"
     inkscape:zoom="3.4305556"
     inkscape:cx="13.117427"
     inkscape:cy="65.365115"
     inkscape:window-x="0"
     inkscape:window-y="104"
     inkscape:current-layer="svg3369"
     showguides="true"
     inkscape:guide-bbox="true" />
  <path
     style="fill:#000000"
     d=""
     id="path3933" />
  <path
     style="fill:#000000"
     d=""
     id="path3931" />
  <path
     style="fill:#000000"
     d=""
     id="path3413" />
  <path
     style="fill:#000000"
     d=""
     id="path3411" />
  <path
     style="fill:#000000"
     d=""
     id="path3409" />
  <g
     id="g5583">
    <image
       style="fill:none;stroke:#000000;stroke-opacity:1;opacity:0.94"
       y="3.2064776"
       x="3.2064776"
       id="image3378"
       height="144"
       width="117"
       sodipodi:absref="/home/sharabsh/quran/public/ayah_temp.tif"
       xlink:href="ayah_temp.tif" />
    <path
       id="path3941"
       d="M 58,135.60437 C 58.745403,131.82848 51.013393,127.79119 52.843613,126.01799 C 55.719642,128.07583 59.684328,131.66557 58,135.60437 z M 61.638374,129.5 C 60.985816,125.39866 63.822916,130.25567 61.722646,129.63217 L 61.638374,129.5 z M 65,126.62244 C 65.404344,122.03665 69.456467,126.95484 65,126.62244 z M 71,122.61803 C 70.61307,119.84265 73.548976,123.69524 71,122.61803 z M 42.25,120.96884 C 39.308339,118.9631 46.364009,122.2631 42.25,120.96884 z M 36.25,118.77951 C 31.891192,114.94565 41.249301,120.02519 36.25,118.77951 z M 81.558868,117.5318 C 87.319285,111.38479 81.108565,122.71966 81.558868,117.5318 z M 31,116 C 28.614815,113.49659 34.442575,117.78216 31,116 z M 87,115.75742 C 88.046471,110.66818 92.317391,116.51199 87,115.75742 z M 26.5,113.02394 C 23.344523,114.16601 21.125502,106.50691 24.965076,110.60895 C 25.471938,111.00589 29.46625,113.00171 26.5,113.02394 z M 70,112 C 69.79137,109.45512 71.113325,113.90715 70,112 z M 92,112.62244 C 92.404344,108.03665 96.456467,112.95484 92,112.62244 z M 98,107 C 97.79137,104.45512 99.113325,108.90715 98,107 z M 86.5,104 C 88.556436,101.53418 87.078044,106.91217 86.5,104 z M 13.333333,103.33333 C 15.356474,100.181 13.858096,106.10083 13.333333,103.33333 z M 103.33333,103.33333 C 105.35647,100.18096 103.85808,106.10085 103.33333,103.33333 z M 69.768448,101.83155 C 74.238037,97.812949 70.703667,104.9351 69.768448,101.83155 z M 41.5,101 C 46.031538,98.066076 44.638998,105.54349 41.5,101 z M 49.270832,101.39583 C 52.046372,98.463477 51.274642,104.97687 49.270832,101.39583 z M 64.511719,100.78655 C 63.773666,97.776805 52.732534,97.103657 60.271653,95.746902 C 61.321386,96.421759 67.509814,99.596535 64.511719,100.78655 z M 107,100.96582 C 100.27649,95.717697 103.75239,86.570794 107.65498,80.834178 C 108.26933,78.577263 109.99422,73.431034 109.16953,78.892721 C 106.61684,85.88834 104.79703,93.638741 107,100.96582 z M 104.38156,90.448059 C 105.52462,86.884733 102.29294,94.294041 104.38156,90.448059 z M 7.2291665,99.8125 C 6.6153754,94.755465 11.217782,100.97172 7.2291665,99.8125 z M 76.5,99.314751 C 77.016061,96.340474 85.975905,94.995194 80.491196,98.436465 C 80.225221,98.680791 73.824862,101.60227 76.5,99.314751 z M 35.660179,97.038033 C 30.407115,96.60724 34.615177,91.507636 36.678062,96.034324 C 37.683006,97.50193 36.928941,99.328711 35.660179,97.038033 z M 11,97.059013 C 10.738924,93.663298 13.442216,98.823172 11,97.059013 z M 19.333332,95.333336 C 21.356434,92.180986 19.858132,98.100821 19.333332,95.333336 z M 92.776962,90.890869 C 94.241748,88.23988 96.484889,81.152516 98.92108,82.317144 C 98.049787,85.485178 96.028846,92.388184 92.2512,91.643392 L 92.776962,90.890869 L 92.776962,90.890869 z M 13.458881,92.933472 C 11.767354,89.86597 15.632152,94.818843 13.458881,92.933472 z M 23.697401,90.505318 C 20.241589,88.7854 18.089066,81.000252 20.112034,79.849988 C 20.804448,82.959262 25.225165,88.592945 23.697401,90.505318 z M 21.5,91 C 22.57033,88.944253 21.729059,93.606669 21.5,91 z M 10.50396,86.663719 C 5.4296749,73.991934 6.0871262,58.98136 12.902565,47.072279 C 8.7304366,59.71172 6.2371536,73.953606 11.35971,86.705157 C 11.685395,88.7314 10.938777,89.551627 10.50396,86.663719 z M 18.5,85 C 19.57033,82.944253 18.729059,87.606669 18.5,85 z M 59.578838,83.345024 C 57.833514,75.422913 50.536261,68.528096 52.899007,59.925956 C 52.487103,52.110735 67.692363,54.53765 64.230625,58.95857 C 58.888562,51.227429 48.540036,63.713093 54.0787,69.732467 C 55.963599,73.933912 63.511316,80.101018 60.633278,83.753958 L 59.578838,83.345024 L 59.578838,83.345024 z M 16,77 C 15.791378,74.455112 17.113321,78.90716 16,77 z M 58.7491,72.894585 C 57.265663,65.659942 62.025344,79.087005 58.7491,72.894585 L 58.7491,72.894585 z M 99,74.440987 C 100.26735,70.457287 99.126987,77.927625 99,74.440987 z M 17.69042,65.863411 C 16.271683,60.072937 22.557971,64.651373 18.623702,67.429677 C 16.664434,69.397728 16.399258,67.203173 17.69042,65.863411 z M 99.582024,68.75 C 96.545049,67.164123 100.43728,58.881602 100.52306,65.182735 C 100.45296,66.088074 101.92445,69.779193 99.582024,68.75 z M 109.03041,68.449997 C 109.89015,62.714121 110.08417,74.13671 109.03041,68.449997 z M 15.078947,67.583336 C 15.678026,64.028439 15.225085,72.314702 15.078947,67.583336 z M 56,65 C 55.791378,62.455112 57.113321,66.90716 56,65 z M 107.07895,64.583336 C 107.66626,61.007635 107.22999,69.341131 107.07895,64.583336 z M 108.23199,59.583313 C 106.89635,52.607142 111.69528,62.648966 108.98523,61.755788 C 108.63392,61.066647 108.52606,60.293717 108.23199,59.583313 z M 55,62 C 54.791376,59.455114 56.113321,63.907159 55,62 z M 59.270832,59.395832 C 62.046352,56.463487 61.274659,62.976852 59.270832,59.395832 z M 17.333332,56.333332 C 19.356453,53.18098 17.858112,59.100832 17.333332,56.333332 z M 20.078947,55.941132 C 20.873991,49.924484 22.953189,56.214191 20.078947,55.941132 z M 95.201607,52.478062 C 94.448115,47.677446 98.435059,57.803801 95.201607,52.478062 L 95.201607,52.478062 z M 98.623543,54.461342 C 93.427543,49.982206 101.67305,53.280868 98.623543,54.461342 z M 12,54 C 11.791375,51.455111 13.113322,55.90717 12,54 z M 105.56974,50.321152 C 100.18035,52.141631 106.16381,42.497781 105.6374,49.015332 L 105.56974,50.321152 L 105.56974,50.321152 z M 24,48 C 23.791376,45.455114 25.113321,49.907159 24,48 z M 90.872444,45.25 C 89.195044,42.597907 93.846958,48.341836 90.872444,45.25 L 90.872444,45.25 z M 29.507078,45.011456 C 31.165111,41.744163 37.767978,44.871503 32.018682,45.717831 L 30.700207,45.597876 L 29.507078,45.011456 L 29.507078,45.011456 z M 78.591377,41.922268 C 74.925749,37.419064 88.058452,47.116921 80.449346,43.023447 C 79.813983,42.683699 79.212189,42.286868 78.591377,41.922268 z M 56.034489,42.375568 C 58.783374,38.470093 60.791529,48.32415 56.506214,43.278282 C 56.348972,42.977378 56.19173,42.676473 56.034489,42.375568 z M 105,43.229435 C 104.35244,39.579194 111.41925,40.166387 106.82402,42.402023 L 105.92321,42.840329 L 105,43.229435 L 105,43.229435 z M 9.2225065,41.443295 C 11.756895,32.571671 22.074991,30.934146 28.188104,25.398232 C 23.88049,31.893947 14.770433,32.624789 10.504292,39.157999 C 10.706052,40.429031 11.337763,43.65968 9.2225065,41.443295 z M 40.333332,39.333332 C 42.356453,36.18098 40.858112,42.100832 40.333332,39.333332 z M 63,39.606991 C 64.988708,35.534232 67.360135,41.130453 63,39.606991 z M 43.333332,38.333332 C 45.356453,35.18098 43.858112,41.100832 43.333332,38.333332 z M 67.333336,37.333332 C 69.356458,34.180981 67.858117,40.100827 67.333336,37.333332 z M 96.5,31.998365 C 86.685263,23.002683 72.609752,20.876948 62.712765,11.999704 C 69.713044,12.724736 73.769137,19.880261 80.712811,21.136261 C 88.936102,24.809576 97.073879,29.389845 102.90106,36.41909 C 100.54632,35.28333 98.687571,33.393992 96.5,31.998365 z M 71.333336,35.333332 C 73.356458,32.180981 71.858117,38.100827 71.333336,35.333332 z M 86,35.559017 C 86.086801,32.495297 88.247998,37.555707 86,35.559017 z M 55.333332,32.333332 C 57.356453,29.18098 55.858112,35.100832 55.333332,32.333332 z M 44.733334,28.875912 C 47.609896,26.146618 43.06984,31.783507 44.733334,28.875912 z M 62,25 C 61.791376,22.455114 63.113321,26.907159 62,25 z M 37,20.76211 C 40.808098,19.882145 47.834001,13.875637 49.403465,15.556973 C 45.682577,17.953559 41.515809,20.493265 37,20.76211 z M 56.729012,6.1368151 C 57.338506,-0.2302035 59.065822,11.020304 56.729012,6.1368151 z"
       style="fill:none" />
    <path
       d="M 96.194332,67.627533 A 34.251011,41.684212 0 1 1 27.69231,67.627533 A 34.251011,41.684212 0 1 1 96.194332,67.627533 z"
       sodipodi:ry="41.684212"
       sodipodi:rx="34.251011"
       sodipodi:cy="67.627533"
       sodipodi:cx="61.943321"
       id="path3974"
       style="opacity:0;fill:none;fill-opacity:0;stroke:#000000;stroke-opacity:1"
       sodipodi:type="arc" />
    <path
       id="path5443"
       d="M 61.6564,23.807058 C 33.493358,23.807058 10.37292,45.740801 10.37292,72.833554 C 10.37292,99.926303 33.493358,121.86005 61.6564,121.86005 C 89.819442,121.86005 112.93988,99.926303 112.93988,72.833554 C 112.93988,45.740801 89.819442,23.807058 61.6564,23.807058 z M 61.6564,33.841052 C 84.481099,33.841052 102.74707,51.352149 102.74707,72.833554 C 102.74707,94.314959 84.481099,111.82606 61.6564,111.82606 C 38.831701,111.82606 20.56573,94.314959 20.56573,72.833554 C 20.56573,51.352149 38.831701,33.841052 61.6564,33.841052 z"
       style="fill:#ffffff;fill-opacity:1;stroke:#000000;stroke-width:1;stroke-linejoin:round;stroke-miterlimit:4;stroke-dasharray:none;stroke-opacity:1" />
    <path
       sodipodi:nodetypes="czsscsszscssssscsss"
       id="path5451"
       d="M 112.51823,42.267207 C 115.02351,43.231905 109.97697,44.506527 106.10527,48.97166 C 104.32837,51.020913 101.29028,46.18896 96.777336,45.765182 C 92.987471,45.409303 93.250556,49.399776 88.615391,48.97166 C 83.980226,48.543544 78.103435,40.724066 72.583002,40.809717 C 68.699102,40.869977 61.506079,47.51417 61.506079,47.51417 C 58.388434,45.473684 53.538197,41.229666 49.84616,41.101215 C 45.888106,40.963509 39.453066,45.997621 35.854257,49.263158 C 33.34462,51.540387 29.332141,45.638156 26.234824,45.473684 C 23.607766,45.334183 17.78138,47.805668 17.78138,47.805668 C 17.78138,47.805668 6.95383,42.12197 9.91094,41.392713 C 15.8488,39.928365 17.35916,39.330448 22.762122,34.34189 C 28.01751,29.489591 33.169199,26.286865 38.186241,24.194332 C 40.403906,23.269377 47.357694,20.975226 51.946656,18.399401 C 58.888262,14.503015 61.214581,7.28745 61.214581,7.28745 C 61.214581,7.28745 65.567692,15.82236 71.27126,18.655871 C 75.759438,20.885581 80.803354,24.16967 83.659924,24.777328 C 89.501117,26.019884 91.236743,28.623358 97.651828,33.23077 C 104.06691,37.838182 102.79486,38.523065 112.51823,42.267207 z"
       style="fill:#ffffff;fill-opacity:1;fill-rule:evenodd;stroke:#000000;stroke-width:1px;stroke-linecap:butt;stroke-linejoin:miter;stroke-opacity:1" />
    <path
       sodipodi:nodetypes="czsscsszscssssscsss"
       id="path5480"
       d="M 112.74216,104.49147 C 115.24802,103.57255 110.20031,102.35841 106.32772,98.105151 C 104.55041,96.153138 101.51162,100.75581 96.99764,101.15948 C 93.206902,101.49847 93.470047,97.697349 88.833815,98.105151 C 84.197582,98.512952 78.319438,105.96138 72.797734,105.8798 C 68.912939,105.8224 61.71826,99.49348 61.71826,99.49348 C 58.599897,101.43714 53.748543,105.47977 50.055656,105.60213 C 46.09669,105.7333 39.660168,100.93807 36.06053,97.827485 C 33.550315,95.658314 29.536912,101.28047 26.438882,101.43714 C 23.811219,101.57002 17.98349,99.215814 17.98349,99.215814 C 17.98349,99.215814 7.15345,104.62981 10.11124,105.32446 C 16.05046,106.71933 17.56117,107.28887 22.96538,112.04071 C 28.221979,116.66276 33.374854,119.71351 38.393051,121.70675 C 40.611227,122.58782 47.566617,124.77311 52.156635,127.2267 C 59.09984,130.9382 61.426695,137.81137 61.426695,137.81137 C 61.426695,137.81137 65.780808,129.68146 71.48569,126.9824 C 75.974901,124.8585 81.019979,121.73024 83.877207,121.15142 C 89.719745,119.96783 91.455771,117.48789 97.872333,113.09911 C 104.28889,108.71033 103.01655,108.05794 112.74216,104.49147 z"
       style="fill:#ffffff;fill-opacity:1;fill-rule:evenodd;stroke:#000000;stroke-width:0.97609818px;stroke-linecap:butt;stroke-linejoin:miter;stroke-opacity:1" />
    <path
       transform="translate(120.97166,17.821862)"
       d="M -53.635629,11.51417 A 6.2672067,5.9757085 0 1 1 -66.170043,11.51417 A 6.2672067,5.9757085 0 1 1 -53.635629,11.51417 z"
       sodipodi:ry="5.9757085"
       sodipodi:rx="6.2672067"
       sodipodi:cy="11.51417"
       sodipodi:cx="-59.902836"
       id="path5482"
       style="fill:#000000;fill-opacity:1;stroke:none;stroke-width:1;stroke-linejoin:round;stroke-miterlimit:4;stroke-dasharray:none;stroke-opacity:1"
       sodipodi:type="arc" />
    <path
       sodipodi:nodetypes="cc"
       id="path5488"
       d="M 32.175246,38.658759 C 32.175246,38.658759 37.570402,31.221836 47.521883,30.347342"
       style="fill:none;fill-rule:evenodd;stroke:#000000;stroke-width:2.921;stroke-linecap:round;stroke-linejoin:miter;stroke-miterlimit:4;stroke-dasharray:none;stroke-opacity:1" />
    <path
       sodipodi:nodetypes="cc"
       id="path5492"
       d="M 90.750239,38.55247 C 90.750239,38.55247 85.355083,31.115547 75.403603,30.241053"
       style="fill:none;fill-rule:evenodd;stroke:#000000;stroke-width:2.921;stroke-linecap:round;stroke-linejoin:miter;stroke-miterlimit:4;stroke-dasharray:none;stroke-opacity:1" />
    <path
       transform="matrix(1.0183905,-3.4235419e-2,-3.1475094e-2,-1.0164419,123.41343,125.16622)"
       d="M -53.635629,11.51417 A 6.2672067,5.9757085 0 1 1 -66.170043,11.51417 A 6.2672067,5.9757085 0 1 1 -53.635629,11.51417 z"
       sodipodi:ry="5.9757085"
       sodipodi:rx="6.2672067"
       sodipodi:cy="11.51417"
       sodipodi:cx="-59.902836"
       id="path5507"
       style="fill:#000000;fill-opacity:1;stroke:none;stroke-width:1;stroke-linejoin:round;stroke-miterlimit:4;stroke-dasharray:none;stroke-opacity:1"
       sodipodi:type="arc" />
    <path
       sodipodi:nodetypes="cc"
       id="path5509"
       d="M 32.328161,107.02671 C 32.328161,107.02671 38.056615,114.4012 48.218633,114.94938"
       style="fill:none;fill-rule:evenodd;stroke:#000000;stroke-width:2.97341776;stroke-linecap:round;stroke-linejoin:miter;stroke-miterlimit:4;stroke-dasharray:none;stroke-opacity:1" />
    <path
       sodipodi:nodetypes="cc"
       id="path5511"
       d="M 91.983723,105.1294 C 91.983723,105.1294 86.723425,112.87331 76.616457,114.10288"
       style="fill:none;fill-rule:evenodd;stroke:#000000;stroke-width:2.97341776;stroke-linecap:round;stroke-linejoin:miter;stroke-miterlimit:4;stroke-dasharray:none;stroke-opacity:1" />
  </g>
  <text
     xml:space="preserve"
     style="font-size:40px;font-style:normal;font-weight:normal;fill:#000000;fill-opacity:1;stroke:none;stroke-width:1px;stroke-linecap:butt;stroke-linejoin:miter;stroke-opacity:1;font-family:Bitstream Vera Sans"
     x="49.554657"
     y="87.157898"
     class="verse_number"><tspan
       sodipodi:role="line"
       id="tspan5599"
       x="49.554657"
       y="87.157898">2</tspan></text>
</svg>
