<?xml version="1.0" encoding="UTF-8" standalone="no"?>
<!-- Created with Inkscape (http://www.inkscape.org/) -->
<svg
   xmlns:dc="http://purl.org/dc/elements/1.1/"
   xmlns:cc="http://creativecommons.org/ns#"
   xmlns:rdf="http://www.w3.org/1999/02/22-rdf-syntax-ns#"
   xmlns:svg="http://www.w3.org/2000/svg"
   xmlns="http://www.w3.org/2000/svg"
   xmlns:sodipodi="http://sodipodi.sourceforge.net/DTD/sodipodi-0.dtd"
   xmlns:inkscape="http://www.inkscape.org/namespaces/inkscape"
   width="104.57693"
   height="135.15668"
   id="svg6202"
   sodipodi:version="0.32"
   inkscape:version="0.46"
   sodipodi:docname="foo.svg"
   inkscape:output_extension="org.inkscape.output.svg.inkscape"
   version="1.0">
  <defs
     id="defs6204">
    <inkscape:perspective
       sodipodi:type="inkscape:persp3d"
       inkscape:vp_x="0 : 526.18109 : 1"
       inkscape:vp_y="0 : 1000 : 0"
       inkscape:vp_z="744.09448 : 526.18109 : 1"
       inkscape:persp3d-origin="372.04724 : 350.78739 : 1"
       id="perspective6210" />
  </defs>
  <sodipodi:namedview
     id="base"
     pagecolor="#ffffff"
     bordercolor="#666666"
     borderopacity="1.0"
     gridtolerance="10000"
     guidetolerance="10"
     objecttolerance="10"
     inkscape:pageopacity="0.0"
     inkscape:pageshadow="2"
     inkscape:zoom="2.8284271"
     inkscape:cx="60.77521"
     inkscape:cy="65.360819"
     inkscape:document-units="px"
     inkscape:current-layer="layer1"
     showgrid="false"
     inkscape:window-width="641"
     inkscape:window-height="713"
     inkscape:window-x="0"
     inkscape:window-y="79" />
  <metadata
     id="metadata6207">
    <rdf:RDF>
      <cc:Work
         rdf:about="">
        <dc:format>image/svg+xml</dc:format>
        <dc:type
           rdf:resource="http://purl.org/dc/dcmitype/StillImage" />
      </cc:Work>
    </rdf:RDF>
  </metadata>
  <g
     inkscape:label="Layer 1"
     inkscape:groupmode="layer"
     id="layer1"
     transform="translate(-390.56866,-7.6409869)">
    <path
       style="opacity:1;fill:#1e1e1e;fill-opacity:1;stroke:#000000;stroke-width:0.10028843;stroke-linecap:round;stroke-linejoin:round;stroke-miterlimit:4;stroke-dasharray:none;stroke-opacity:1"
       d="M 442.13518,141.91101 C 442.15325,138.30696 449.45432,130.71465 455.70027,127.8048 C 457.91801,126.7716 461.76923,124.96533 464.25853,123.79086 C 466.74783,122.61639 469.35028,121.6567 470.04175,121.65823 C 470.73322,121.65976 471.29897,121.32086 471.29897,120.90512 C 471.29897,120.48938 472.54362,119.6011 474.06486,118.93115 C 475.5861,118.26121 478.38529,116.30084 480.28528,114.57475 C 482.18527,112.84866 485.43579,110.55748 487.50867,109.48325 C 493.5042,106.37616 494.28226,104.85373 490.53795,103.55595 C 487.12312,102.37238 486.55303,100.31876 488.75506,97.133528 C 494.61287,88.660217 495.64844,70.182952 490.99536,57.161058 C 490.6023,56.06106 490.99087,56.375787 491.85885,57.860449 C 496.56498,65.910214 496.04674,83.905335 490.77906,95.355509 C 489.15711,98.881051 488.56131,101.21541 489.22712,101.43607 C 491.57888,102.21549 495.53302,105.96238 494.75504,106.67425 C 494.30069,107.08997 491.74097,108.56927 489.06676,109.96158 C 486.39254,111.3539 482.55659,113.98405 480.54243,115.80637 C 476.88728,119.11336 462.9412,126.66101 460.48587,126.66101 C 456.85615,126.66101 447.12457,134.86085 444.94556,139.75529 C 443.75345,142.433 442.12631,143.6811 442.13518,141.91101 z M 437.21183,134.55926 C 432.76543,129.62807 432.54291,127.55181 436.95666,132.17829 C 439.81411,135.17346 441.62065,135.44915 440.11987,132.66101 C 439.38997,131.30502 439.37858,130.66101 440.08448,130.66101 C 440.65712,130.66101 441.12564,131.33601 441.12564,132.16101 C 441.12564,132.98601 441.75612,133.66101 442.5267,133.66101 C 443.98681,133.66101 445.64634,130.89299 445.22462,129.16101 C 445.0907,128.61101 445.28521,128.46335 445.65686,128.83287 C 446.02852,129.20239 448.57546,128.18989 451.31672,126.58287 C 454.05798,124.97585 457.07296,123.66725 458.01668,123.67488 C 458.9604,123.68251 457.69583,124.69501 455.20653,125.92488 C 452.71723,127.15475 449.09643,129.61961 447.16031,131.40234 C 445.22419,133.18507 443.06572,134.64757 442.36371,134.65234 C 441.50534,134.65817 441.294,135.47976 441.71841,137.16101 C 442.53681,140.40306 442.42064,140.33599 437.21183,134.55926 z M 430.06209,128.74434 C 430.06209,128.14851 430.60119,127.66101 431.2601,127.66101 C 431.91901,127.66101 431.58455,127.02591 430.51686,126.24969 C 429.44917,125.47346 428.18285,125.07971 427.7028,125.37469 C 427.22276,125.66966 427.44407,126.34721 428.1946,126.88034 C 429.18269,127.58222 429.00418,127.66667 427.54765,127.18642 C 426.44129,126.82163 423.83884,125.99461 421.76442,125.34861 C 419.69001,124.7026 417.99276,123.83362 417.99276,123.41753 C 417.99276,123.00144 417.34524,122.66101 416.55383,122.66101 C 414.74236,122.66101 408.03467,118.45911 407.97755,117.28859 C 407.95414,116.80874 408.61388,116.97634 409.44365,117.66101 C 410.67181,118.67444 410.95231,118.62413 410.95231,117.39044 C 410.95231,115.53096 408.52821,114.47121 407.22915,115.7628 C 406.63174,116.35678 405.59342,115.95596 404.43627,114.68466 C 403.4232,113.57166 402.05572,112.66103 401.39743,112.66103 C 400.73913,112.66103 399.46125,111.84883 398.5577,110.85615 C 397.65414,109.86346 395.32133,108.42961 393.37368,107.6698 C 389.78627,106.27029 391.40102,101.66102 395.47873,101.66102 C 397.61318,101.66102 398.13017,99.694737 396.60774,97.367046 C 394.74476,94.518703 392.48973,87.684224 393.18486,86.99309 C 393.48023,86.699423 394.25107,88.417072 394.89786,90.810088 C 395.54464,93.203102 396.41859,95.386024 396.83996,95.661024 C 399.8908,97.652097 397.97184,103.66102 394.28514,103.66102 C 392.24462,103.66102 392.49942,106.5934 394.60843,107.38161 C 395.57649,107.74341 398.80048,109.5786 401.77284,111.45981 C 406.06323,114.17519 407.35573,114.59995 408.04355,113.52061 C 408.67972,112.52232 408.91405,112.49321 408.92536,113.41103 C 408.93383,114.09853 409.41228,114.66103 409.98859,114.66103 C 410.5649,114.66103 412.03585,115.58883 413.25737,116.7228 C 414.93262,118.27796 415.04585,118.62023 413.7182,118.11579 C 410.03995,116.71825 412.1583,119.44895 416.45808,121.64771 C 419.79224,123.35268 421.29925,123.6673 422.27503,122.86213 C 423.1133,122.17042 424.12812,122.11255 425.06693,122.7029 C 426.20994,123.42166 425.976,123.64906 424.02742,123.71338 C 421.51298,123.79637 421.51298,123.79637 423.85209,124.91527 C 425.66022,125.78018 426.3767,125.73573 427.00842,124.71947 C 427.52375,123.89044 428.3316,123.72351 429.19531,124.26758 C 429.94863,124.74212 431.01758,125.13728 431.57076,125.1457 C 433.02901,125.1679 432.80796,128.91765 431.31931,129.41101 C 430.62784,129.64018 430.06209,129.34018 430.06209,128.74434 z M 439.47684,123.8957 C 438.66165,123.37305 438.78948,122.73754 439.91973,121.69377 C 441.32787,120.39338 441.43318,120.42181 440.84577,121.94377 C 440.37599,123.16096 440.68634,123.65175 441.91154,123.62921 C 444.72894,123.57737 447.16031,121.12539 447.16031,118.33595 C 447.16031,114.76986 442.59314,112.34491 440.8896,115.00652 C 440.38286,115.79825 440.14583,115.69833 440.13527,114.68852 C 440.1251,113.71671 439.5772,113.98634 438.52391,115.48148 C 437.2463,117.29505 437.17457,118.04239 438.16434,119.22813 C 438.84436,120.0428 439.10994,120.99847 438.75452,121.35184 C 438.39911,121.70522 438.10831,121.41424 438.10831,120.70523 C 438.10831,119.70445 437.78857,119.67996 436.67877,120.59572 C 435.05408,121.93635 435.38481,118.98314 437.30462,115.00729 C 438.32675,112.89051 444.14298,111.09245 444.14298,112.89324 C 444.14298,113.38044 444.57287,113.5149 445.09829,113.19204 C 446.42037,112.37964 448.16609,115.93205 448.16609,119.43475 C 448.16609,123.26393 442.79352,126.02214 439.47684,123.8957 z M 460.25082,124.03839 C 460.23516,122.89698 470.38324,117.4172 471.13272,118.16237 C 471.35793,118.3863 469.33763,119.6026 466.64315,120.86526 C 463.94866,122.12792 461.41157,123.61101 461.00515,124.16101 C 460.53161,124.80186 460.26069,124.75782 460.25082,124.03839 z M 455.20653,119.60199 C 455.20653,119.01953 454.75393,118.82109 454.20075,119.16101 C 452.6083,120.13955 453.03237,118.04008 454.70614,116.65897 C 455.56823,115.94761 457.4409,115.65534 459.06607,115.9785 C 460.68718,116.30086 463.11955,115.92357 464.71032,115.10301 C 466.24783,114.30992 468.01981,113.67746 468.64805,113.69755 C 469.92441,113.73835 463.06583,117.02488 459.35513,118.15055 C 457.58819,118.68658 457.16636,118.55323 457.73502,117.63841 C 458.23638,116.83189 458.01775,116.56977 457.10664,116.88504 C 456.33817,117.15095 455.84241,118.10931 456.00495,119.01475 C 456.1675,119.92019 456.05435,120.66101 455.75351,120.66101 C 455.45267,120.66101 455.20653,120.18445 455.20653,119.60199 z M 425.28465,118.3136 C 421.76879,117.16685 420.69262,115.50422 424.02742,116.37128 C 428.05145,117.41752 425.84782,115.09926 420.53129,112.69324 C 417.53212,111.33596 415.24601,110.05867 415.45104,109.85482 C 415.65606,109.65097 418.75268,110.87397 422.33241,112.57261 C 425.91214,114.27124 429.29363,115.66103 429.84683,115.66103 C 431.05949,115.66103 432.17915,118.22278 431.33383,119.06324 C 430.58471,119.80805 429.42633,119.6645 425.28465,118.3136 z M 470.85529,111.19283 C 472.40538,110.02714 472.48643,109.71808 471.24869,109.69283 C 470.39126,109.67534 469.15415,110.19353 468.49956,110.84436 C 467.84496,111.4952 467.06142,111.78115 466.75835,111.47982 C 466.45528,111.17849 467.40132,110.1541 468.86066,109.20339 C 470.67419,108.02195 471.8406,107.79954 472.54582,108.50071 C 473.98234,109.92898 472.7278,112.66103 470.63542,112.66103 C 469.09582,112.66103 469.1203,112.49758 470.85529,111.19283 z M 426.54187,109.10085 C 424.88233,108.29236 424.42974,107.907 425.53609,108.24448 C 429.79889,109.54483 435.09098,109.90385 435.09098,108.8927 C 435.09098,108.32528 433.46162,107.86103 431.47018,107.86103 C 429.47874,107.86103 427.46308,107.47695 426.99094,107.00752 C 426.51687,106.53618 428.09809,106.30945 430.52236,106.50115 C 434.3162,106.80115 435.36057,106.42227 438.21448,103.71057 C 441.64301,100.45291 445.10702,99.985206 445.98787,102.66102 C 446.4022,103.91966 446.22527,103.95065 444.88824,102.85361 C 443.58085,101.78088 442.91961,101.77918 441.20446,102.84415 C 438.80196,104.33592 438.37006,106.15888 440.62276,105.29939 C 441.45252,104.98281 442.13142,105.14383 442.13142,105.65722 C 442.13142,106.84829 438.12757,109.01351 437.35165,108.24205 C 437.03024,107.92249 437.29531,107.66103 437.94068,107.66103 C 438.58606,107.66103 439.11409,107.22515 439.11409,106.69241 C 439.11409,106.15968 438.43519,105.98282 437.60542,106.2994 C 436.77566,106.61599 436.09676,107.72686 436.09676,108.76802 C 436.09676,111.13195 431.07038,111.30703 426.54187,109.10085 z M 451.18342,109.69842 C 450.12481,109.01027 450.79991,108.89745 453.44642,109.32021 C 455.8212,109.69957 457.21809,109.52866 457.21809,108.85876 C 457.21809,108.27358 455.95424,107.83052 454.40953,107.87419 C 452.86483,107.91786 450.63159,107.43776 449.44677,106.80731 C 446.41978,105.1966 445.26951,105.43725 447.60399,107.19283 C 448.69976,108.01687 448.9992,108.66103 448.28648,108.66103 C 447.14222,108.66103 444.14298,106.33332 444.14298,105.44525 C 444.14298,104.66105 448.64256,104.80929 449.63244,105.6261 C 450.21333,106.10544 452.27089,106.64689 454.20479,106.82933 C 456.51149,107.04693 457.72097,107.67699 457.72097,108.66103 C 457.72097,110.43503 453.37698,111.12434 451.18342,109.69842 z M 421.01009,106.78593 C 421.01009,106.30463 419.53914,105.18986 417.74131,104.30869 C 415.94349,103.42752 415.08157,102.69631 415.82594,102.68379 C 416.57031,102.67126 418.49386,103.59166 420.1005,104.72911 C 423.34898,107.02896 424.11989,106.04046 421.08965,103.46078 C 417.86861,100.71868 415.40798,99.735794 413.20087,100.30965 C 408.74756,101.46753 401.89272,85.950969 401.9112,74.754492 C 401.93294,61.592043 408.00986,48.942583 413.65354,50.312137 C 415.09064,50.660878 417.35447,49.824869 420.1911,47.897897 C 426.15718,43.845024 431.1084,42.345694 434.40761,43.592844 C 436.16348,44.25659 437.24024,44.248545 437.66295,43.568521 C 438.06561,42.920752 439.15152,43.110656 440.65848,44.092383 C 442.7956,45.484635 443.17721,45.478427 444.63635,44.027673 C 445.52403,43.145088 446.49434,42.66559 446.79258,42.962118 C 448.66631,44.825083 442.00133,46.854918 439.96043,45.042867 C 437.858,43.176187 437.84716,43.181154 438.6112,45.661068 C 439.34333,48.037409 439.28776,48.080356 437.48765,46.529347 C 433.09116,42.741244 426.3525,43.995434 420.1291,49.760099 C 418.48993,51.278453 416.9695,51.73874 414.69136,51.406301 C 403.19501,49.728691 398.68181,84.482228 408.97015,95.462011 C 410.06034,96.625471 410.95231,98.054785 410.95231,98.638261 C 410.95231,99.271326 411.96923,99.445361 413.47409,99.069838 C 417.32122,98.109814 425.96585,104.33373 423.79002,106.49707 C 422.40599,107.87315 421.01009,108.0182 421.01009,106.78593 z M 461.34391,104.18379 C 467.83256,99.480424 471.30399,98.051051 472.3095,99.668665 C 472.79991,100.4576 473.37872,100.89113 473.59574,100.63206 C 476.09236,97.65171 480.34162,90.32823 481.41197,87.161034 C 482.26637,84.63281 482.90024,83.795306 483.1347,84.88486 C 483.62728,87.173864 476.87913,99.837628 474.3201,101.42659 C 473.12675,102.16757 472.30475,102.26664 472.30475,101.66949 C 472.30475,99.811287 469.18515,100.6349 464.76142,103.66102 C 459.50324,107.25797 456.46081,107.72337 461.34391,104.18379 z M 466.1844,104.584 C 467.72329,103.31014 469.19731,102.84983 470.20751,103.32764 C 471.0844,103.74241 475.48946,103.95549 479.99652,103.80116 C 484.50358,103.64684 488.41845,103.88967 488.69621,104.34079 C 489.31807,105.35073 472.43279,105.29363 470.17144,104.27815 C 469.18495,103.83516 467.92231,104.16114 466.9745,105.10351 C 466.11292,105.96015 465.03621,106.64606 464.58182,106.62776 C 464.12742,106.60946 464.84858,105.68978 466.1844,104.584 z M 400.89454,100.66102 C 400.06477,100.12786 399.73452,99.684755 400.16065,99.676333 C 400.58677,99.667911 399.98147,97.801854 398.81552,95.52954 C 395.1468,88.379584 393.86892,82.535517 394.03366,73.661044 C 394.19146,65.16105 394.19146,65.16105 394.8891,75.161042 C 395.63081,85.792785 396.26942,88.410959 399.93817,95.861509 C 401.64774,99.333307 402.92968,100.66646 404.84243,100.96167 C 407.43209,101.36136 407.43209,101.36136 404.91765,101.49587 C 403.53471,101.56986 401.72431,101.19418 400.89454,100.66102 z M 480.4461,100.94182 C 485.80894,100.3737 491.09704,88.995221 491.56522,77.016695 C 491.69899,73.594164 491.76641,73.498045 492.16541,76.161042 C 493.63535,85.971788 486.6721,101.72469 480.96795,101.49292 C 476.83075,101.32481 476.83075,101.32481 480.4461,100.94182 z M 478.33942,98.998569 C 478.33942,98.63422 479.66049,96.271721 481.27514,93.748571 C 483.97766,89.525459 485.84242,82.65302 486.7257,73.661044 C 487.01742,70.691275 487.0915,70.84277 487.21473,74.661042 C 487.41699,80.926909 485.18648,89.607028 481.97326,95.058472 C 479.43029,99.372791 478.33942,100.5556 478.33942,98.998569 z M 391.48232,81.911038 C 390.01623,73.092212 391.17734,64.218633 394.96577,55.28933 C 397.03268,50.417605 397.03268,50.417605 393.36269,47.409862 C 389.69269,44.40212 389.69269,44.40212 393.5335,42.67789 C 395.64595,41.729563 399.75654,39.072593 402.66814,36.773513 C 409.40321,31.45532 416.13274,27.515362 422.51876,25.151518 C 431.44594,21.847041 437.60672,17.322737 440.07086,12.26175 C 442.40145,7.4750586 443.75402,6.2079366 442.84541,9.662476 C 442.5559,10.763234 442.69677,11.43173 443.15847,11.148023 C 443.62017,10.864315 445.01119,12.424691 446.24962,14.615524 C 448.04676,17.794719 450.07422,19.37857 456.29275,22.461192 C 464.14314,26.352746 466.78414,30.596919 459.59741,27.771876 C 457.64742,27.005352 457.44682,26.773845 458.9772,27.056112 C 460.22129,27.285576 461.49266,27.065566 461.80244,26.5672 C 462.11223,26.068835 461.6376,25.661082 460.74772,25.661082 C 459.85784,25.661082 457.76191,24.95781 456.09011,24.098258 C 453.55943,22.797111 452.76786,22.755252 451.36261,23.848259 C 449.89859,24.986982 449.8347,24.956696 450.88084,23.619882 C 451.85962,22.36915 451.70088,21.838976 450.0386,20.806827 C 448.20152,19.666142 448.05542,19.739059 448.62198,21.513874 C 448.96942,22.602269 448.78786,23.779015 448.21852,24.128866 C 447.63312,24.488581 447.41226,24.171866 447.71019,23.399928 C 447.99995,22.649161 447.31587,21.206045 446.19,20.193006 C 445.06414,19.179966 444.15674,17.858359 444.17356,17.256104 C 444.19038,16.653848 444.66547,16.948592 445.22932,17.91109 C 445.79316,18.87359 446.66933,19.66109 447.17637,19.66109 C 447.6834,19.66109 447.16361,18.08609 446.02127,16.161092 C 443.47592,11.871841 441.66148,11.730183 439.61698,15.661092 C 438.7588,17.311092 437.70102,18.66109 437.26636,18.66109 C 436.83169,18.66109 435.59867,19.44859 434.5263,20.41109 C 432.46118,22.264624 430.46427,23.305727 422.7702,26.540231 C 419.98272,27.71206 417.99276,29.196838 417.99276,30.104848 C 417.99276,30.960774 417.51345,31.661078 416.92762,31.661078 C 416.3418,31.661078 416.14221,31.211078 416.48409,30.661078 C 417.47027,29.074581 416.15596,29.474945 411.53062,32.170004 C 407.00498,34.806963 402.89338,38.661072 404.60588,38.661072 C 405.15906,38.661072 406.43086,37.761072 407.43209,36.661074 C 408.43333,35.561074 409.7165,34.661074 410.28357,34.661074 C 410.85064,34.661074 409.79061,36.013889 407.92793,37.667329 C 405.72449,39.623262 404.29981,40.285167 403.8502,39.561852 C 402.91262,38.053537 397.90426,41.333936 397.7978,43.526078 C 397.74805,44.550455 397.52994,44.697219 397.21378,43.919058 C 396.45786,42.058556 392.77102,44.297202 393.49627,46.17632 C 394.06312,47.645033 396.98954,48.210295 398.13423,47.072181 C 398.45999,46.748294 401.13788,46.288622 404.08509,46.050687 C 407.03229,45.812752 410.03953,45.552753 410.76783,45.472908 C 411.61584,45.379939 411.89015,44.528038 411.53064,43.103889 C 411.11936,41.474634 411.62983,40.449718 413.43985,39.27056 C 417.20971,36.814641 417.86818,37.362689 414.47254,40.130075 C 410.16423,43.641264 413.00517,43.240577 418.48382,39.564325 C 421.02208,37.861115 424.32612,36.130542 425.82613,35.718606 C 427.49135,35.261301 428.49903,34.325414 428.41373,33.315355 C 428.25685,31.457438 429.59399,31.099007 430.60634,32.727611 C 431.43602,34.062354 428.43091,36.366326 424.78176,37.19323 C 423.26052,37.537943 422.01587,38.234228 422.01587,38.740527 C 422.01587,39.246827 421.54494,39.661072 420.96936,39.661072 C 420.39379,39.661072 418.47024,40.672049 416.69481,41.907691 C 414.91938,43.14333 413.2674,44.279044 413.02374,44.431498 C 412.78008,44.583952 413.33954,45.463152 414.26699,46.385273 C 415.84484,47.954056 416.13201,47.895449 418.73312,45.47381 C 421.90765,42.518322 426.03898,40.923033 426.03898,42.652699 C 426.03898,43.27222 425.64292,43.535731 425.15885,43.238276 C 424.67478,42.940823 422.42241,44.034432 420.15358,45.66852 C 416.57418,48.246531 415.69661,48.489264 413.52016,47.503305 C 411.55167,46.61155 410.63926,46.667661 409.28037,47.764044 C 407.79569,48.961907 407.67048,48.96041 408.40208,47.753542 C 409.07484,46.643724 408.7434,46.482204 406.83504,46.989888 C 405.50388,47.344016 402.97194,47.639901 401.20849,47.647411 C 398.78925,47.657714 398.02859,48.09063 398.10963,49.411064 C 398.1687,50.373564 397.25486,53.231346 396.07887,55.761692 C 393.30272,61.735018 391.77901,71.555058 392.40933,79.41104 C 392.96507,86.33741 392.44938,87.728138 391.48232,81.911038 z M 399.32514,80.106947 C 398.29996,73.309796 400.53923,59.40461 403.22551,55.886894 C 403.76067,55.186103 403.88311,54.299135 403.49762,53.915856 C 403.11212,53.532576 402.33427,53.880951 401.76906,54.69002 C 400.87112,55.975375 400.79373,55.971719 401.156,54.66106 C 401.38403,53.836062 402.21054,53.149168 402.99268,53.134631 C 403.77482,53.120094 404.90486,52.802524 405.50387,52.428919 C 406.10287,52.055314 405.58397,53.867208 404.35075,56.455348 C 401.18909,63.090664 399.54393,72.106723 400.25705,78.890306 C 400.97718,85.740524 400.30683,86.615691 399.32514,80.106947 z M 482.94835,80.411038 C 484.85127,74.475777 482.27494,61.758985 477.85876,55.288763 C 476.46359,53.244678 475.32208,51.14223 475.32208,50.616655 C 475.32208,49.233276 474.21636,49.441019 472.27316,51.189486 C 470.43876,52.840061 465.26431,51.729942 465.26431,49.685815 C 465.26431,49.122202 464.58541,48.661064 463.75564,48.661064 C 462.92587,48.661064 462.24697,48.211066 462.24697,47.661066 C 462.24697,47.111066 461.56807,46.661066 460.73831,46.661066 C 459.90854,46.661066 459.22964,46.211066 459.22964,45.661068 C 459.22964,43.208541 450.65034,44.649287 446.88658,47.73387 C 444.82442,49.42391 443.1372,50.363912 443.1372,49.822762 C 443.1372,43.383863 455.82193,41.786664 463.50653,47.257954 C 468.74224,50.985692 471.37341,51.481738 473.35004,49.11373 C 474.38167,47.877835 474.80823,47.827517 475.46935,48.86373 C 476.08507,49.828793 476.301,49.712857 476.31246,48.411066 C 476.33098,46.306855 473.05701,46.055982 471.09075,48.010945 C 470.01664,49.078888 469.49109,49.103259 468.57444,48.127628 C 466.99821,46.449955 472.83529,45.591722 480.85386,46.32217 C 488.43661,47.012919 489.30019,47.661066 482.63776,47.661066 C 477.38884,47.661066 475.73876,48.971144 476.96992,52.161062 C 477.86026,54.467918 479.35102,53.938523 479.08189,51.411062 C 478.67765,47.614726 485.35228,48.952297 487.13997,53.025872 C 488.98648,57.233471 488.66723,57.613662 486.39666,53.911062 C 485.3005,52.123562 483.98142,50.661064 483.46535,50.661064 C 482.94928,50.661064 481.81113,50.387919 480.93612,50.054075 C 478.81583,49.245115 478.91215,51.083841 481.1053,53.28368 C 482.7816,54.965082 482.7816,55.017597 481.1053,54.386491 C 480.13724,54.022029 479.35742,53.822208 479.37236,53.942447 C 479.3873,54.062685 480.75916,57.761056 482.42092,62.161052 C 485.02409,69.053649 485.3644,69.558211 484.87944,65.806075 C 484.56984,63.410842 483.62868,60.035844 482.78796,58.306081 C 481.39283,55.435638 481.39713,55.332973 482.8373,57.13016 C 485.12699,59.987454 486.66005,66.514714 485.75329,69.545334 C 485.32283,70.983975 484.89135,73.736044 484.79443,75.661042 C 484.46331,82.237263 484.37286,82.661036 483.30053,82.661036 C 482.64399,82.661036 482.50719,81.78704 482.94835,80.411038 z M 491.5515,70.569977 C 491.47616,69.144889 490.75222,65.790888 489.94275,63.116642 C 489.13326,60.442396 488.65387,58.072512 488.87745,57.850232 C 489.66591,57.066295 492.55528,68.684385 492.12478,70.907709 C 491.72756,72.959181 491.6762,72.928925 491.5515,70.569977 z M 395.44042,62.161052 C 397.11428,52.902281 403.53493,45.886288 407.09496,49.425872 C 407.72141,50.04872 407.07346,50.351723 405.27481,50.277036 C 402.18687,50.148811 398.24748,55.011917 396.05314,61.661052 C 395.06128,64.666494 394.9747,64.737144 395.44042,62.161052 z M 488.48154,52.423739 C 487.27214,50.498305 487.40547,50.061657 489.77684,48.181657 C 493.2356,45.439583 493.14535,45.069487 488.43557,42.680535 C 486.24397,41.568885 483.53314,39.679989 482.41152,38.482987 C 481.2899,37.285986 480.06848,36.608614 479.69724,36.977717 C 478.69163,37.977552 482.07486,41.297463 485.97419,43.137186 C 487.86001,44.02693 489.39604,45.29629 489.38757,45.957983 C 489.3779,46.713424 489.09723,46.788394 488.63324,46.159472 C 488.22682,45.608597 486.53651,44.486669 484.87698,43.666302 C 483.21744,42.845936 481.12765,41.384153 480.233,40.417898 C 479.33835,39.451645 478.0937,38.661072 477.46711,38.661072 C 476.84052,38.661072 476.32786,38.232185 476.32786,37.707989 C 476.32786,37.183796 474.74376,36.007522 472.80764,35.09405 C 470.87152,34.18058 469.28742,33.034467 469.28742,32.547135 C 469.28742,32.059802 468.69904,31.661078 467.97991,31.661078 C 466.07704,31.661078 464.33463,29.627474 464.92559,28.096323 C 465.80902,25.807355 477.01593,31.786299 483.54341,38.029027 C 485.02267,39.443749 488.07771,41.395863 490.33241,42.367059 C 495.13539,44.435909 495.47703,45.964866 491.66598,48.335353 C 490.14473,49.281567 488.72243,50.181067 488.50532,50.334238 C 488.28818,50.48741 488.69214,51.309481 489.40297,52.161062 C 490.11381,53.012645 490.50062,53.903054 490.26255,54.13975 C 490.02449,54.376443 489.22304,53.60424 488.48154,52.423739 z M 477.91608,35.097316 C 477.12159,34.307385 476.02433,33.661076 475.47774,33.661076 C 474.93115,33.661076 474.33307,33.323576 474.14868,32.911076 C 473.7921,32.113386 467.87895,28.66108 466.86924,28.66108 C 465.66904,28.66108 466.30658,30.663005 467.52731,30.727469 C 468.21878,30.763983 470.82123,32.280839 473.31053,34.09826 C 477.71118,37.311146 480.82126,37.985796 477.91608,35.097316 z M 461.01115,43.473568 C 460.7127,42.58246 458.61219,42.16107 454.46871,42.16107 C 451.11213,42.16107 448.60556,41.772658 448.89854,41.297933 C 449.63963,40.09713 460.0496,41.076322 461.46098,42.479594 C 462.09611,43.111071 462.35363,43.88836 462.03325,44.206901 C 461.71286,44.525443 461.25292,44.195443 461.01115,43.473568 z M 469.28742,43.352198 C 469.28742,42.422078 468.80811,41.66107 468.22228,41.66107 C 467.63646,41.66107 467.46673,41.163027 467.84512,40.554307 C 468.3247,39.782779 468.79498,39.858503 469.39774,40.804307 C 470.18221,42.035243 470.71323,41.306016 470.4123,39.411072 C 470.34679,38.998572 470.7458,38.661072 471.29897,38.661072 C 472.74442,38.661072 472.48143,40.844722 470.7641,43.102198 C 469.47644,44.794851 469.28742,44.826853 469.28742,43.352198 z M 427.71918,40.077226 C 428.05539,39.206111 428.60693,38.887691 428.94484,39.369626 C 429.28274,39.851561 430.88057,40.340562 432.49556,40.456296 C 437.31244,40.801484 436.79473,41.66107 431.76995,41.66107 C 427.92942,41.66107 427.21561,41.38197 427.71918,40.077226 z M 437.76131,36.832333 C 433.738,32.412175 436.26709,26.66108 442.23419,26.66108 C 445.74547,26.66108 448.16609,29.501506 448.16609,33.621738 C 448.16609,37.560001 440.55994,39.907025 437.76131,36.832333 z M 445.28223,35.508064 C 447.5001,32.96553 447.43036,33.472131 446.04376,29.976178 C 445.00631,27.360498 444.86882,27.302757 444.1029,29.161078 C 443.40157,30.862679 443.26803,30.899979 443.20789,29.411078 C 443.05735,25.684248 437.10253,28.137955 437.10253,31.926817 C 437.10253,37.376162 441.84243,39.451394 445.28223,35.508064 z M 461.74409,37.661072 C 461.4022,37.111074 461.60179,36.661074 462.18762,36.661074 C 462.77344,36.661074 463.25275,36.160993 463.25275,35.549783 C 463.25275,34.826513 461.93583,34.646244 459.48109,35.033494 C 456.24117,35.544608 456.06059,35.482536 458.20022,34.593223 C 461.85513,33.074109 465.20692,34.163263 464.55105,36.656903 C 463.98196,38.820618 462.74085,39.264613 461.74409,37.661072 z M 453.94931,33.998795 C 455.90401,33.214589 455.42861,31.64615 453.44642,32.339639 C 452.24384,32.760377 452.00489,32.626032 452.69209,31.915511 C 453.24526,31.343555 455.23011,31.112344 457.10286,31.40171 C 460.21281,31.882241 456.54043,34.978739 453.33095,34.582127 C 452.97957,34.538706 453.25784,34.276208 453.94931,33.998795 z M 419.52634,29.620996 C 419.85452,29.093041 420.72073,28.66108 421.45125,28.66108 C 422.18177,28.66108 425.77586,27.161668 429.43811,25.329055 C 433.10037,23.496444 436.09568,22.258946 436.09437,22.579061 C 436.09124,23.33953 426.47057,28.15606 422.23287,29.518732 C 420.26713,30.150835 419.17125,30.192242 419.52634,29.620996 z M 437.10253,21.169786 C 437.10253,20.533403 443.27611,14.661092 443.94514,14.661092 C 444.40705,14.661092 442.55608,17.009361 439.43738,20.379964 C 438.23395,21.680588 437.10253,22.063321 437.10253,21.169786 z"
       id="path5658"
       inkscape:export-xdpi="90"
       inkscape:export-ydpi="90" />
  </g>
</svg>
